<?xml version="1.0" standalone="no"?>
<!DOCTYPE svg PUBLIC "-//W3C//DTD SVG 20010904//EN"
 "http://www.w3.org/TR/2001/REC-SVG-20010904/DTD/svg10.dtd">
<svg version="1.0" xmlns="http://www.w3.org/2000/svg"
 width="117.000000pt" height="173.000000pt" viewBox="0 0 117.000000 173.000000"
 preserveAspectRatio="xMidYMid meet">

<g transform="translate(0.000000,173.000000) scale(0.100000,-0.100000)"
fill="#000000" stroke="none">
<path d="M69 1629 c-37 -37 -22 -57 140 -186 84 -68 157 -123 161 -123 13 0
81 58 78 67 -3 8 -134 114 -261 211 -38 29 -75 52 -83 52 -8 0 -23 -9 -35 -21z"/>
<path d="M943 1598 c-37 -29 -165 -129 -283 -222 -118 -93 -292 -230 -386
-303 -207 -161 -224 -176 -224 -202 0 -12 22 -39 52 -65 93 -80 259 -206 271
-206 7 1 29 15 49 33 l37 32 -130 100 c-71 55 -129 103 -129 106 0 4 17 19 38
35 158 120 793 622 815 645 15 16 27 36 27 44 0 19 -36 55 -54 55 -8 0 -45
-23 -83 -52z"/>
<path d="M711 1111 c-19 -15 -31 -33 -28 -38 4 -6 61 -52 127 -103 66 -52 119
-97 118 -101 -3 -7 -132 -109 -548 -435 -288 -225 -330 -262 -330 -284 0 -23
33 -60 54 -60 21 0 680 508 879 678 91 78 107 101 89 128 -17 27 -298 244
-314 244 -7 0 -28 -13 -47 -29z"/>
<path d="M708 387 l-36 -32 165 -129 c91 -71 173 -131 183 -133 24 -6 62 33
58 60 -3 23 -297 267 -321 267 -6 -1 -29 -15 -49 -33z"/>
</g>
</svg>
